# xmcd
#
# Track frame offsets:
#	150
#	13782
#	34967
#	51275
#	69487
#	82945
#	98617
#	117804
#	138035
#	151780
#	169732
#	191350
#	214622
#	227935
#	261007
#
# Disc length: 3719
#
# Revision: 2
# Processed by: cddbd v1.5.1PL0 Copyright (c) Steve Scherf et al.
# Submitted via: MAGIX_Freedb v0.9beta0
# Normalized: r1:DSETVAR1
#
DISCID=ba0e850f
DTITLE=Various Artist - Harlem Nocturne CD 1
DYEAR=2000
DGENRE=Jazz
TTITLE0=Sam "The man" Taylor - Harlem Nocturne
TTITLE1=Louis Amstrong - Body and Soul
TTITLE2=Johnny Hodges - I've got it bad and that ain't good
TTITLE3=Roy Eldridge - Echoes of Harlem
TTITLE4=Charlie Parker - Laura
TTITLE5=Quincy Jones with Phil Woods - Take Five
TTITLE6=John Coltrane and Duke Ellington - In a Sentimental Mood
TTITLE7=Helen Merril and Gil Evans - Summertime
TTITLE8=Miles Davis - Final
TTITLE9=Benny Carter with Coleman Hawkins - The Midnight Sun will never set
TTITLE10=Jimmy Smith - Blues in the nigth
TTITLE11=Bill Evans - Spartacus (love theme)
TTITLE12=Herbie Mann - Stardust
TTITLE13=Wes Montgomery - Round Midnight
TTITLE14=John McLaughlin - Time Remebered
EXTD=YEAR: 2000
EXTT0=
EXTT1=
EXTT2=
EXTT3=
EXTT4=
EXTT5=
EXTT6=
EXTT7=
EXTT8=
EXTT9=
EXTT10=
EXTT11=
EXTT12=
EXTT13=
EXTT14=
PLAYORDER=
